<?xml version="1.0" standalone="no"?>
<!DOCTYPE svg PUBLIC "-//W3C//DTD SVG 20010904//EN"
 "http://www.w3.org/TR/2001/REC-SVG-20010904/DTD/svg10.dtd">
<svg version="1.0" xmlns="http://www.w3.org/2000/svg"
 width="700.000000pt" height="700.000000pt" viewBox="0 0 700.000000 700.000000"
 preserveAspectRatio="xMidYMid meet">
<metadata>
Created by potrace 1.14, written by Peter Selinger 2001-2017
</metadata>
<g transform="translate(0.000000,700.000000) scale(0.100000,-0.100000)"
fill="#000000" stroke="none">
<path d="M3477 6689 c-125 -30 -238 -138 -272 -264 -5 -16 -10 -199 -11 -405
-1 -206 -3 -380 -3 -385 -1 -7 -392 -10 -1163 -10 -825 1 -1178 -2 -1213 -10
-78 -18 -125 -44 -186 -105 -159 -159 -133 -428 54 -557 99 -67 28 -64 1330
-64 1103 0 1177 -1 1178 -17 0 -9 2 -973 3 -2142 2 -1916 4 -2129 18 -2166 72
-186 252 -284 438 -237 113 28 190 92 244 203 l31 65 3 2897 2 2897 -24 65
c-64 176 -249 278 -429 235z"/>
<path d="M5300 5985 c-243 -50 -364 -306 -253 -530 19 -37 125 -150 422 -448
218 -219 414 -411 436 -426 134 -94 314 -88 442 16 141 114 177 314 86 471
-33 56 -812 835 -872 872 -75 47 -174 64 -261 45z"/>
<path d="M4633 3954 c-103 -27 -190 -100 -241 -204 -24 -48 -27 -67 -27 -151
0 -169 -53 -107 873 -1031 894 -893 851 -855 992 -865 178 -13 328 89 380 256
33 104 22 200 -34 295 -30 52 -1607 1629 -1661 1662 -79 48 -189 63 -282 38z"/>
<path d="M2317 3899 c-60 -14 -128 -53 -197 -114 -77 -69 -102 -90 -200 -174
-41 -36 -79 -70 -85 -75 -5 -6 -39 -36 -75 -66 -35 -30 -71 -62 -80 -70 -9 -8
-42 -37 -74 -65 -33 -27 -77 -66 -100 -86 -23 -20 -153 -134 -291 -254 -137
-120 -266 -232 -285 -249 -19 -17 -87 -76 -150 -131 -63 -54 -122 -106 -131
-115 -9 -8 -48 -42 -86 -75 -82 -70 -124 -128 -148 -204 -75 -233 111 -478
359 -473 71 1 149 25 196 60 32 24 159 130 170 143 3 3 41 36 85 74 44 37 85
73 90 79 6 6 57 51 115 101 58 49 119 102 135 117 17 14 41 36 55 48 50 43
189 164 290 254 20 17 85 74 145 126 61 52 112 97 115 100 3 3 55 47 115 99
110 95 125 107 180 159 17 15 59 52 95 82 131 112 171 165 196 262 56 217
-108 440 -332 452 -38 2 -86 0 -107 -5z"/>
</g>
</svg>
